<svg id="Group_183" data-name="Group 183" xmlns="http://www.w3.org/2000/svg" width="28.996" height="20.869" viewBox="0 0 28.996 20.869">
  <path id="Path_80" data-name="Path 80" d="M570.513,5.033a4.81,4.81,0,0,0-.774-2.61A5.8,5.8,0,0,0,566.152.052a.721.721,0,0,0-.873.266c-1.327,1.694-2.683,3.37-4.031,5.05l-.267.33,3.084,3.82c.4-.5.814-1,1.255-1.547l.023-.027.138-.171V13.2l-.141-.143a1.557,1.557,0,0,1-.142-.153q-.3-.388-.6-.777c-.361-.468-.721-.937-1.073-1.41a.543.543,0,0,1-.045-.074l-3.252-4.026,0,0q-.408-.507-.815-1.009l-3.364-4.165c-1.144,1.411-2.262,2.787-3.388,4.175l3.06,3.821c.1-.125.205-.253.311-.385.139.162.246.281.345.4l3.9,4.846q2.513,3.124,5.018,6.252a.713.713,0,0,0,.867.267,5.847,5.847,0,0,0,3.533-2.3,4.842,4.842,0,0,0,.818-2.685q.062-5.4,0-10.8Z" transform="translate(-541.547 -0.008)" fill="#ececec"/>
  <path id="Path_81" data-name="Path 81" d="M427.442,15.429c-1.051,1.333-2.126,2.651-3.24,4.028l-2.348-2.942c-2.348-2.94-4.694-5.879-7.078-8.866h0v5.443h0l1.361-1.681c.1.1.176.173.24.253.886,1.1,1.765,2.2,2.661,3.287a.344.344,0,0,1,.012.524q-2.1,2.588-4.159,5.2a.756.756,0,0,1-.114.117,0,0,0,0,1,0,0l-.019.016a.663.663,0,0,1-.581.057,5.734,5.734,0,0,1-3.713-2.456,4.864,4.864,0,0,1-.735-2.556q-.059-5.4,0-10.8a4.8,4.8,0,0,1,.832-2.684A5.879,5.879,0,0,1,414.1.071a.671.671,0,0,1,.676.113,1.138,1.138,0,0,1,.146.155c1.59,2,3.2,3.992,4.807,5.986.071.088.143.173.266.322l3.51,4.381c.212.27.44.544.685.849l.4-.453c.381.479.738.931,1.1,1.381.579.72,1.171,1.43,1.731,2.161a.465.465,0,0,1,.023.466Z" transform="translate(-409.696 -0.03)" fill="#ececec"/>
  <line id="Line_49" data-name="Line 49" x2="2.348" y2="2.942" transform="translate(12.158 16.484)" fill="#1bfef4"/>
  <line id="Line_50" data-name="Line 50" x1="0.741" y1="0.93" transform="translate(23.053 12.116)" fill="#1bfef4"/>
</svg>
